<?xml version="1.0" encoding="UTF-8" standalone="no"?>
<!DOCTYPE svg PUBLIC "-//W3C//DTD SVG 1.1//EN" "http://www.w3.org/Graphics/SVG/1.1/DTD/svg11.dtd">
<svg width="100%" height="100%" viewBox="0 0 512 512" version="1.1" xmlns="http://www.w3.org/2000/svg" xmlns:xlink="http://www.w3.org/1999/xlink" xml:space="preserve" xmlns:serif="http://www.serif.com/" style="fill-rule:evenodd;clip-rule:evenodd;stroke-linejoin:round;stroke-miterlimit:2;">
    <rect id="Artboard1" x="0" y="0" width="512" height="512" style="fill:none;"/>
    <g>
        <path d="M414.789,281.157C418.592,267.565 409.67,265.511 405.609,265.261L391.953,265.261L391.953,246.739L405.609,246.739C409.67,246.489 418.592,244.435 414.789,230.843C410.019,214.708 402.502,203.623 402.502,203.623C395.535,193.344 398.225,179.342 408.504,172.375C413.275,169.142 418.847,167.988 424.145,168.707C421.419,164.606 419.647,162.349 419.647,162.349C412.004,152.562 413.744,138.41 423.531,130.767C433.318,123.124 447.47,124.864 455.113,134.651C455.113,134.651 497.994,189.767 497.994,256C497.994,322.233 455.113,377.349 455.113,377.349C447.47,387.136 433.318,388.876 423.531,381.233C413.744,373.59 412.004,359.438 419.647,349.651C419.647,349.651 421.419,347.394 424.145,343.293C418.847,344.012 413.275,342.858 408.504,339.625C398.225,332.658 395.535,318.656 402.502,308.377C402.502,308.377 410.019,297.292 414.789,281.157Z" style="fill:rgb(8,184,8);stroke:rgb(8,140,8);stroke-width:8.44px;"/>
        <path d="M434.055,151.097C432.622,149.262 432.948,146.608 434.783,145.175C436.618,143.742 439.272,144.068 440.705,145.903C440.705,145.903 479.713,195.891 479.713,256C479.713,316.109 440.705,366.097 440.705,366.097C439.272,367.932 436.618,368.258 434.783,366.825C432.948,365.392 432.622,362.738 434.055,360.903C434.055,360.903 471.276,313.283 471.276,256C471.276,198.717 434.055,151.097 434.055,151.097Z" style="fill:white;"/>
        <path d="M417.635,193.367C416.329,191.439 416.833,188.814 418.761,187.508C420.688,186.201 423.313,186.706 424.62,188.633C424.62,188.633 445.346,219.217 445.346,256C445.346,292.783 424.62,323.367 424.62,323.367C423.313,325.294 420.688,325.799 418.761,324.492C416.833,323.186 416.329,320.561 417.635,318.633C417.635,318.633 436.909,290.198 436.909,256C436.909,221.802 417.635,193.367 417.635,193.367Z" style="fill:white;"/>
        <path d="M242.821,368.332C237.324,368.121 230.32,367.184 221.014,365.529C161.571,354.956 141.047,311.656 96.75,292.753C52.454,273.85 51.051,265.258 28.418,263.463C2.665,261.421 19.278,253.159 19.278,253.159C19.278,253.159 42.314,249.553 74.161,230.96C85.096,224.576 98.457,216.116 114.622,204.908C124.779,197.866 144.582,193.254 156.673,183.983C174.155,168.874 194.225,152.431 219.6,147.025C232.469,143.602 243.372,142.961 254.364,143.388C254.399,143.388 254.434,143.388 254.469,143.388C263.682,143.388 272.685,144.127 281.395,145.537C288.625,146.148 295.659,147.818 302.374,150.378C354.926,166.294 392.419,207.628 392.419,256.058C392.419,318.243 330.605,368.729 254.469,368.729C250.546,368.729 246.661,368.595 242.821,368.332Z" style="fill:rgb(161,57,53);stroke:rgb(72,3,0);stroke-width:8.44px;stroke-linecap:round;stroke-miterlimit:1.5;"/>
        <path d="M325.956,263.46C325.309,261.223 326.599,258.882 328.836,258.234C331.072,257.587 333.414,258.877 334.061,261.114C334.061,261.114 349.309,314.347 334.332,351.006C333.451,353.161 331.925,352.32 329.769,351.439C327.614,350.559 325.64,349.97 326.521,347.814C340.576,313.414 325.956,263.46 325.956,263.46Z" style="fill:rgb(72,3,0);"/>
        <path d="M213.24,296.544C212.74,294.27 214.179,292.017 216.453,291.516C218.727,291.016 220.98,292.455 221.48,294.729C221.48,294.729 227.412,321.704 228.176,342.384C228.537,352.158 227.54,360.613 224.838,364.949C223.607,366.926 221.908,365.451 219.932,364.22C217.955,362.989 216.446,362.464 217.677,360.488C219.798,357.083 220.028,350.37 219.744,342.696C219.004,322.667 213.24,296.544 213.24,296.544Z" style="fill:rgb(72,3,0);"/>
        <path d="M241.949,145.691C240.614,143.783 242.009,143.339 243.917,142.004C245.824,140.668 247.526,138.944 248.861,140.852C248.861,140.852 281.821,187.861 283.338,252.751C283.392,255.078 281.546,257.012 279.219,257.067C276.891,257.121 274.957,255.275 274.902,252.948C273.449,190.764 241.949,145.691 241.949,145.691Z" style="fill:rgb(72,3,0);"/>
    </g>
</svg>
